<svg width="32" height="32" viewBox="0 0 32 32" fill="none" xmlns="http://www.w3.org/2000/svg">
<g clip-path="url(#clip0_764_110)">
<path d="M31.5016 16.08C31.5016 7.48002 24.5616 0.500019 16.0016 0.500019C13.0246 0.4954 10.1089 1.346 7.60133 2.95065C5.09377 4.55529 3.0999 6.84644 1.8569 9.55156C0.613891 12.2567 0.174064 15.2619 0.589733 18.2098C1.0054 21.1576 2.25907 23.9241 4.20162 26.18C6.60262 28.9938 9.92858 30.8589 13.5816 31.44V20.46H9.78162V16.06H13.5816V12.82C13.5816 9.06002 15.8616 7.02002 19.1816 7.02002C20.7816 7.02002 22.1616 7.14002 22.5616 7.18002V11.12H20.2616C18.4416 11.12 18.0616 11.98 18.0616 13.26V16.06H22.4016L21.8416 20.46H18.0816V31.5C21.8014 30.9828 25.2081 29.1361 27.6715 26.3013C30.1349 23.4666 31.4884 19.8356 31.4816 16.08" fill="black"/>
</g>
<defs>
<clipPath id="clip0_764_110">
<rect width="32" height="32" fill="white"/>
</clipPath>
</defs>
</svg>
