<svg width="38" height="40" viewBox="0 0 38 40" fill="none" xmlns="http://www.w3.org/2000/svg">
<path fill-rule="evenodd" clip-rule="evenodd" d="M0 10.5C0 4.97715 4.47715 0.5 10 0.5H28C33.5228 0.5 38 4.97715 38 10.5V29.5C38 35.0228 33.5228 39.5 28 39.5H10C4.47715 39.5 0 35.0228 0 29.5V10.5ZM28 20.5C28 25.4706 23.9706 29.5 19 29.5C14.0294 29.5 10 25.4706 10 20.5C10 15.5294 14.0294 11.5 19 11.5C23.9706 11.5 28 15.5294 28 20.5ZM29 11.5C30.1046 11.5 31 10.6046 31 9.5C31 8.39543 30.1046 7.5 29 7.5C27.8954 7.5 27 8.39543 27 9.5C27 10.6046 27.8954 11.5 29 11.5Z" fill="black"/>
</svg>
