<svg width="32" height="32" viewBox="0 0 32 32" fill="none" xmlns="http://www.w3.org/2000/svg">
<g clip-path="url(#clip0_764_105)">
<path d="M31.5 2.78V29.22C31.5 29.8247 31.2598 30.4046 30.8322 30.8322C30.4046 31.2598 29.8247 31.5 29.22 31.5H2.78C2.17531 31.5 1.59538 31.2598 1.1678 30.8322C0.740213 30.4046 0.5 29.8247 0.5 29.22V2.78C0.5 2.17531 0.740213 1.59538 1.1678 1.1678C1.59538 0.740213 2.17531 0.5 2.78 0.5H29.22C29.8247 0.5 30.4046 0.740213 30.8322 1.1678C31.2598 1.59538 31.5 2.17531 31.5 2.78ZM9.62 12.36H5.06V26.96H9.6V12.36H9.62ZM10 7.34C10.0026 6.99593 9.93748 6.65472 9.80824 6.33584C9.679 6.01695 9.48822 5.72665 9.24678 5.4815C9.00535 5.23635 8.71799 5.04116 8.40112 4.90707C8.08425 4.77298 7.74407 4.70262 7.4 4.7H7.32C6.61983 4.7 5.94833 4.97814 5.45324 5.47324C4.95814 5.96833 4.68 6.63983 4.68 7.34C4.68 8.04017 4.95814 8.71167 5.45324 9.20676C5.94833 9.70186 6.61983 9.98 7.32 9.98C7.66409 9.98797 8.00637 9.92807 8.3273 9.80371C8.64823 9.67936 8.94151 9.49299 9.19039 9.25525C9.43927 9.01752 9.63887 8.73307 9.77778 8.41817C9.9167 8.10328 9.99221 7.76409 10 7.42V7.34ZM26.92 18.08C26.92 13.68 24.12 11.98 21.36 11.98C20.454 11.9381 19.5529 12.1338 18.7459 12.5478C17.939 12.9618 17.2544 13.5796 16.76 14.34H16.62V12.34H12.34V26.94H16.9V19.2C16.8332 18.408 17.0813 17.6216 17.5904 17.0114C18.0996 16.4011 18.8289 16.0161 19.62 15.94H19.8C21.24 15.94 22.32 16.84 22.32 19.14V26.96H26.88L26.92 18.1V18.08Z" fill="black"/>
</g>
<defs>
<clipPath id="clip0_764_105">
<rect width="32" height="32" fill="white"/>
</clipPath>
</defs>
</svg>
