<svg width="40" height="40" viewBox="0 0 40 40" fill="none" xmlns="http://www.w3.org/2000/svg">
    <g clip-path="url(#clip0_764_100)">
    <path d="M35.6947 11.9526C35.7198 12.3036 35.7198 12.6546 35.7198 13.0056C35.7198 23.7103 27.5722 36.0447 12.6807 36.0447C8.09292 36.0447 3.83109 34.7159 0.246094 32.4096C0.897932 32.4848 1.52461 32.5098 2.20153 32.5098C5.987 32.5098 9.47176 31.2313 12.2545 29.0503C8.6946 28.975 5.71128 26.6435 4.68341 23.4346C5.18484 23.5097 5.6862 23.5599 6.21272 23.5599C6.93972 23.5599 7.6668 23.4596 8.34364 23.2842C4.63332 22.532 1.85049 19.273 1.85049 15.337V15.2368C2.92845 15.8385 4.18205 16.2145 5.51065 16.2646C3.32957 14.8105 1.90065 12.3286 1.90065 9.52081C1.90065 8.01666 2.30169 6.63782 3.00369 5.43446C6.9898 10.3481 12.9815 13.557 19.7001 13.908C19.5748 13.3064 19.4996 12.6797 19.4996 12.0529C19.4996 7.59046 23.1096 3.95538 27.5971 3.95538C29.9286 3.95538 32.0344 4.9331 33.5136 6.5125C35.3436 6.16154 37.0985 5.48462 38.6529 4.55706C38.0511 6.43734 36.7726 8.01673 35.093 9.01945C36.7225 8.84405 38.3019 8.3927 39.7559 7.76601C38.6531 9.37041 37.2741 10.7993 35.6947 11.9526V11.9526Z" fill="black"/>
    </g>
    <defs>
    <clipPath id="clip0_764_100">
    <rect width="39.51" height="39.51" fill="white" transform="translate(0.246094 0.244995)"/>
    </clipPath>
    </defs>
</svg>
