<svg width="143" height="32" viewBox="0 0 143 32" fill="none" xmlns="http://www.w3.org/2000/svg">
<path d="M71.16 8C65.64 8 61.6598 11.6 61.6598 17C61.6598 22.4 66.135 26 71.6602 26C74.9949 26 77.935 24.68 79.7549 22.455L75.9299 20.245C74.92 21.35 73.385 21.995 71.6602 21.995C69.265 21.995 67.2301 20.745 66.4749 18.745H80.4851C80.5949 18.185 80.6602 17.605 80.6602 16.995C80.6602 11.6 76.6851 8 71.16 8ZM66.4349 15.25C67.0598 13.255 68.7699 12 71.16 12C73.5549 12 75.265 13.255 75.8851 15.25H66.4349ZM65.305 2.5L51.4499 26.5L37.5901 2.5H42.785L51.4451 17.5L60.105 2.5H65.305ZM18.475 0L36.9501 32H0L18.475 0ZM100.76 17C100.76 20 102.72 22 105.76 22C107.82 22 109.365 21.065 110.16 19.54L114 21.755C112.41 24.405 109.43 26 105.76 26C100.235 26 96.2602 22.4 96.2602 17C96.2602 11.6 100.24 8 105.76 8C109.43 8 112.405 9.59501 114 12.245L110.16 14.46C109.365 12.935 107.82 12 105.76 12C102.725 12 100.76 14 100.76 17ZM142 2.5V25.5H137.5V2.5H142ZM125 8C119.48 8 115.5 11.6 115.5 17C115.5 22.4 119.98 26 125.5 26C128.835 26 131.775 24.68 133.595 22.455L129.77 20.245C128.76 21.35 127.225 21.995 125.5 21.995C123.105 21.995 121.07 20.745 120.315 18.745H134.325C134.435 18.185 134.5 17.605 134.5 16.995C134.5 11.6 130.525 8 125 8ZM120.275 15.25C120.9 13.255 122.605 12 125 12C127.395 12 129.105 13.255 129.725 15.25H120.275ZM94.76 8.5V13.345C94.2602 13.2 93.7299 13.1 93.16 13.1C90.255 13.1 88.16 15.1 88.16 18.1V25.5H83.6602V8.5H88.16V13.1C88.16 10.56 91.1149 8.5 94.76 8.5Z" fill="white"/>
</svg>
