<svg width="153" height="32" viewBox="0 0 153 32" fill="none" xmlns="http://www.w3.org/2000/svg">
<g clip-path="url(#clip0_686_179)">
<path opacity="0.7" d="M113.712 11.6256V30.5495H107.492V14.8564L113.712 11.6256Z" fill="white"/>
<path opacity="0.7" d="M30.4727 31.0255L45.0078 23.4256L43.2159 18.7841L33.6466 23.2467L30.4727 31.0255Z" fill="white"/>
<path opacity="0.5" d="M107.492 14.8403L123.261 6.77058L120.597 2.26487L107.492 8.66905V14.8403Z" fill="white"/>
<path opacity="0.7" d="M63.0837 10.127V30.5495H57.1523V1.46493L63.0837 10.127Z" fill="white"/>
<path opacity="0.5" d="M39.4615 8.99807L30.4741 31.0255L25.8516 27.0463L36.5602 1.46493L39.4615 8.99807Z" fill="white"/>
<path d="M36.5625 1.46493H42.6896L54.0218 30.5495H47.7503L36.5625 1.46493Z" fill="white"/>
<path d="M64.0011 1.46493L77.0646 21.3356V30.5495L57.1523 1.46493H64.0011Z" fill="white"/>
<path d="M94.4276 1.46493H88.2539V30.5546H94.4276V1.46493Z" fill="white"/>
<path d="M107.495 6.77053H97.9922V1.46493H120.126L123.264 6.77053H113.715H107.495Z" fill="white"/>
<path opacity="0.5" d="M141.491 19.5132V30.5495H135.363V19.5132" fill="white"/>
<path d="M135.363 19.513L145.732 1.46493H152.241L141.491 19.513H135.363Z" fill="white"/>
<path opacity="0.7" d="M135.36 19.513L124.703 1.46493H131.408L138.627 13.8328L135.36 19.513Z" fill="white"/>
<path d="M2.85336 4.82151C2.85336 8.87158 5.39909 11.2814 10.4957 12.5521L15.8964 13.7823C20.7198 14.8707 23.6572 17.5741 23.6572 21.9786C23.6948 23.8975 23.0597 25.7706 21.8587 27.2842C21.8587 22.8899 19.5449 20.5155 13.9638 19.0879L8.66111 17.9033C4.4148 16.9514 1.13732 14.729 1.13732 9.94486C1.11498 8.09735 1.71867 6.295 2.85336 4.82151Z" fill="white"/>
<path opacity="0.7" d="M77.0625 19.8422V1.46493H82.9938V30.5495H77.0625V19.8422Z" fill="white"/>
<path opacity="0.7" d="M18.539 20.9002C20.8424 22.3481 21.8524 24.3731 21.8524 27.2791C19.9458 29.6787 16.5962 31.0255 12.659 31.0255C6.03191 31.0255 1.39394 27.8208 0.363281 22.2519H6.7276C7.54696 24.8086 9.7165 25.9932 12.6126 25.9932C16.1479 25.9932 18.4977 24.1402 18.5441 20.89" fill="white"/>
<path opacity="0.7" d="M6.16213 10.8257C5.11025 10.2116 4.24727 9.32909 3.66477 8.27196C3.08228 7.21482 2.802 6.02247 2.85371 4.82147C4.69343 2.44205 7.89364 0.989082 11.7947 0.989082C18.5455 0.989082 22.4517 4.49239 23.4153 9.42336H17.2933C16.6182 7.47932 14.9279 5.96562 11.8462 5.96562C8.55326 5.96562 6.30642 7.84889 6.17758 10.8257" fill="white"/>
</g>
<defs>
<clipPath id="clip0_686_179">
<rect width="152.727" height="32" fill="white"/>
</clipPath>
</defs>
</svg>
