<svg width="107" height="32" viewBox="0 0 107 32" fill="none" xmlns="http://www.w3.org/2000/svg">
<path d="M36.6406 10.0926H39.7195L46.2444 20.9114V10.0926H49.0864V25.4224H46.0287L39.4827 14.626V25.4224H36.6406V10.0926Z" fill="white"/>
<path d="M61.7919 25.4224H59.1438V23.7101C58.5407 24.9152 57.3138 25.5936 55.7636 25.5936C53.3089 25.5936 51.7148 23.7978 51.7148 21.2132V14.3841H54.3634V20.6481C54.3634 22.1593 55.2683 23.2103 56.6247 23.2103C58.1103 23.2103 59.1438 22.0276 59.1438 20.4073V14.3841H61.7919V25.4224Z" fill="white"/>
<path d="M71.0045 25.2479L68.4637 21.5684L65.9225 25.2479H63.1016L67.0208 19.488L63.4034 14.2096H66.2888L68.4637 17.386L70.6166 14.2096H73.5237L69.8841 19.488L73.8038 25.2479H71.0045Z" fill="white"/>
<path d="M79.1866 11.0555V14.3839H82.201V16.64H79.1866V22.1194C79.1866 22.3034 79.258 22.48 79.386 22.6102C79.514 22.7405 79.6873 22.8138 79.8685 22.8141H82.201V25.4179H80.4563C78.0879 25.4179 76.538 24.016 76.538 21.5651V16.642H74.4062V14.3839H75.7434C76.3677 14.3839 76.7305 14.0061 76.7305 13.3811V11.0555H79.1866Z" fill="white"/>
<path d="M88.8828 21.9507V10.0926H91.7239V21.042C91.7239 23.999 90.3242 25.4224 87.9558 25.4224H84.6484V22.8186H88.0297C88.2556 22.8186 88.4727 22.7271 88.6327 22.5644C88.7932 22.4016 88.8828 22.1808 88.8828 21.9507Z" fill="white"/>
<path d="M93.4258 20.2755H96.1615C96.3126 21.9879 97.4326 23.0784 99.2413 23.0784C100.857 23.0784 101.977 22.4224 101.977 21.0643C101.977 17.7786 93.8747 20.0561 93.8747 14.187C93.8767 11.6688 96.0089 9.91894 99.072 9.91894C102.259 9.91894 104.412 11.7801 104.543 14.6493H101.823C101.694 13.3137 100.665 12.4158 99.0667 12.4158C97.5808 12.4158 96.6547 13.1168 96.6547 14.1892C96.6547 17.584 104.862 15.0454 104.862 21.0225C104.862 23.8694 102.558 25.5999 99.2424 25.5999C95.8184 25.5999 93.5794 23.4969 93.4287 20.2777" fill="white"/>
<path fill-rule="evenodd" clip-rule="evenodd" d="M16.2877 10.7909L14.1734 7.02078C13.3784 5.60327 11.391 5.60327 10.596 7.02078L1.93214 22.4694C1.13716 23.887 2.13087 25.6588 3.72081 25.6588H7.61498C7.62527 25.6403 7.6358 25.6218 7.64654 25.6033L16.2877 10.7909Z" fill="white"/>
<path d="M19.6672 10.4095C20.3253 9.24974 21.9699 9.24974 22.6278 10.4095L29.798 23.0493C30.4559 24.209 29.6335 25.6588 28.3177 25.6588H13.9774C12.6616 25.6588 11.8393 24.209 12.4972 23.0493L19.6672 10.4095Z" fill="white"/>
</svg>
