<svg width="36" height="32" viewBox="0 0 36 32" fill="none" xmlns="http://www.w3.org/2000/svg">
<g clip-path="url(#clip0_686_173)">
<path d="M17.9831 19.2057C19.7535 19.2057 21.1888 17.7705 21.1888 16C21.1888 14.2295 19.7535 12.7943 17.9831 12.7943C16.2126 12.7943 14.7773 14.2295 14.7773 16C14.7773 17.7705 16.2126 19.2057 17.9831 19.2057Z" fill="white"/>
<path d="M17.9826 22.5678C27.4827 22.5678 35.184 19.6273 35.184 16C35.184 12.3727 27.4827 9.4322 17.9826 9.4322C8.48257 9.4322 0.78125 12.3727 0.78125 16C0.78125 19.6273 8.48257 22.5678 17.9826 22.5678Z" stroke="white"/>
<path d="M12.2952 19.2839C17.0453 27.5112 23.4425 32.7105 26.5838 30.8968C29.7251 29.0832 28.421 20.9434 23.671 12.7161C18.921 4.48881 12.5238 -0.710475 9.38243 1.10317C6.2411 2.91682 7.54521 11.0566 12.2952 19.2839Z" stroke="white"/>
<path d="M12.2931 12.7161C7.54306 20.9434 6.23895 29.0832 9.38028 30.8968C12.5216 32.7105 18.9188 27.5112 23.6688 19.2839C28.4189 11.0566 29.723 2.91682 26.5817 1.10317C23.4403 -0.710475 17.0431 4.48881 12.2931 12.7161Z" stroke="white"/>
</g>
<defs>
<clipPath id="clip0_686_173">
<rect width="35.9665" height="32" fill="white"/>
</clipPath>
</defs>
</svg>
