<svg width="118" height="32" viewBox="0 0 118 32" fill="none" xmlns="http://www.w3.org/2000/svg">
<g clip-path="url(#clip0_686_155)">
<path fill-rule="evenodd" clip-rule="evenodd" d="M42.6917 10.3824L42.7901 12.1408C43.9125 10.7808 45.3861 10.1008 47.2101 10.1008C50.3709 10.1008 51.9797 11.9152 52.0357 15.544V25.5984H48.6277V15.7408C48.6277 14.7751 48.4197 14.0608 48.0037 13.596C47.5877 13.132 46.9069 12.9 45.9621 12.9C44.5869 12.9 43.5621 13.524 42.8901 14.7703V25.5984H39.4805V10.3824H42.6933H42.6917ZM62.1941 25.88C60.0341 25.88 58.2821 25.1984 56.9405 23.8343C55.5981 22.4704 54.9269 20.6535 54.9269 18.3847V17.9632C54.9269 16.4448 55.2189 15.0871 55.8037 13.892C56.3877 12.6968 57.2093 11.7664 58.2661 11.1C59.3229 10.4352 60.5013 10.1024 61.8021 10.1024C63.8685 10.1024 65.4661 10.7632 66.5925 12.0848C67.7205 13.4072 68.2837 15.2768 68.2837 17.696V19.0743H58.3637C58.4677 20.3303 58.8853 21.3239 59.6197 22.0551C60.3541 22.7863 61.2781 23.152 62.3909 23.152C63.9525 23.152 65.2245 22.52 66.2069 21.2535L68.0445 23.0119C67.4365 23.9207 66.6253 24.6263 65.6109 25.128C64.5957 25.6295 63.4573 25.88 62.1949 25.88H62.1941ZM61.7877 12.8448C60.8517 12.8448 60.0973 13.1728 59.5221 13.8288C58.9461 14.4848 58.5797 15.3991 58.4205 16.5712H64.9165V16.3175C64.8413 15.1735 64.5373 14.3096 64.0045 13.7232C63.4709 13.1376 62.7325 12.8448 61.7877 12.8448ZM75.1997 6.68477V10.3832H77.8797V12.9144H75.1997V21.408C75.1997 21.9888 75.3149 22.408 75.5437 22.6663C75.7725 22.9239 76.1821 23.0528 76.7717 23.0528C77.1731 23.0516 77.5731 23.0044 77.9637 22.912V25.5559C77.1877 25.7719 76.4397 25.8791 75.7189 25.8791C73.1005 25.8791 71.7909 24.4311 71.7909 21.5344V12.9136H69.2917V10.3824H71.7893V6.68397H75.1981L75.1997 6.68477ZM84.1093 25.5991H80.6997V3.99917H84.1093V25.5991ZM91.4469 25.5991H88.0373V10.3832H91.4469V25.5991ZM87.8269 6.43117C87.8269 5.90717 87.9925 5.47117 88.3245 5.12397C88.6573 4.77757 89.1317 4.60397 89.7485 4.60397C90.3661 4.60397 90.8429 4.77757 91.1805 5.12397C91.5165 5.47117 91.6845 5.90717 91.6845 6.43197C91.6845 6.94717 91.5165 7.37597 91.1805 7.71837C90.8429 8.06077 90.3661 8.23197 89.7485 8.23197C89.1317 8.23197 88.6573 8.06077 88.3245 7.71837C87.9925 7.37677 87.8269 6.94717 87.8269 6.43197V6.43117ZM96.3573 25.5991V12.9136H94.0421V10.3824H96.3573V8.99037C96.3573 7.30237 96.8245 5.99997 97.7597 5.08077C98.6957 4.16237 100.005 3.70317 101.688 3.70317C102.287 3.70317 102.923 3.78717 103.597 3.95597L103.512 6.62797C103.082 6.54812 102.645 6.5106 102.208 6.51597C100.58 6.51597 99.7661 7.35437 99.7661 9.03277V10.3824H102.853V12.9136H99.7661V25.5984H96.3573V25.5991ZM110.653 20.7056L113.74 10.3832H117.373L111.341 27.9056C110.415 30.4647 108.844 31.7447 106.627 31.7447C106.131 31.7447 105.584 31.6599 104.985 31.4912V28.8471L105.631 28.8896C106.491 28.8896 107.139 28.7328 107.574 28.4183C108.008 28.1047 108.352 27.5776 108.605 26.8368L109.096 25.5287L103.765 10.3832H107.44L110.653 20.7056Z" fill="white"/>
<path d="M22.3072 11.308L22.296 11.3032C22.2896 11.3008 22.2832 11.2984 22.2775 11.2928C22.2684 11.2829 22.2615 11.2711 22.2578 11.2582C22.2538 11.2453 22.253 11.2317 22.2551 11.2184L22.8736 7.43759L25.7735 10.3384L22.7575 11.6216C22.7491 11.625 22.7402 11.6266 22.7312 11.6264H22.7191C22.7152 11.624 22.7111 11.6208 22.7031 11.6128C22.5909 11.4878 22.4567 11.3845 22.3072 11.308ZM26.5136 11.0776L29.6144 14.1784C30.2583 14.8231 30.5808 15.1447 30.6983 15.5175C30.7159 15.5728 30.7303 15.6279 30.7415 15.6848L23.3312 12.5464C23.3271 12.5447 23.3232 12.5431 23.3191 12.5416C23.2896 12.5296 23.2551 12.516 23.2551 12.4856C23.2551 12.4552 23.2903 12.4408 23.32 12.4288L23.3296 12.4248L26.5136 11.0776ZM30.6151 16.68C30.4551 16.9808 30.1431 17.2928 29.6151 17.8215L26.1191 21.3168L21.5975 20.3751L21.5735 20.3703C21.5335 20.3639 21.4912 20.3568 21.4912 20.3207C21.4741 20.1343 21.4186 19.9533 21.3285 19.7891C21.2383 19.6249 21.1154 19.481 20.9671 19.3664C20.9488 19.3479 20.9536 19.3191 20.9591 19.2928C20.9591 19.2887 20.9591 19.2848 20.9607 19.2816L21.8112 14.0608L21.8144 14.0432C21.8192 14.0032 21.8263 13.9568 21.8624 13.9568C22.0447 13.9341 22.2205 13.8754 22.3798 13.7841C22.5392 13.6927 22.6787 13.5706 22.7904 13.4248C22.7975 13.4168 22.8023 13.408 22.8119 13.4032C22.8375 13.3912 22.8679 13.4032 22.8944 13.4144L30.6151 16.68ZM25.3152 22.1207L19.5664 27.8695L20.5504 21.8215L20.552 21.8135C20.5527 21.8055 20.5543 21.7975 20.5568 21.7904C20.5648 21.7712 20.5856 21.7632 20.6055 21.7552L20.6151 21.7511C20.8306 21.6592 21.0211 21.5175 21.1712 21.3376C21.1904 21.3152 21.2135 21.2935 21.2432 21.2896C21.2508 21.2883 21.2586 21.2883 21.2663 21.2896L25.3152 22.1207ZM18.3495 29.0864L17.7015 29.7344L10.5376 19.3808C10.535 19.377 10.5323 19.3732 10.5296 19.3696C10.5184 19.3543 10.5064 19.3392 10.5088 19.3216C10.5088 19.3088 10.5176 19.2976 10.5264 19.288L10.5344 19.2775C10.556 19.2455 10.5744 19.2135 10.5944 19.1792L10.6104 19.1511L10.6128 19.1488C10.624 19.1296 10.6344 19.1111 10.6536 19.1008C10.6704 19.0928 10.6936 19.096 10.712 19.0999L18.6487 20.7367C18.671 20.7402 18.6919 20.7494 18.7095 20.7632C18.72 20.7735 18.7223 20.7847 18.7248 20.7975C18.7801 21.007 18.8832 21.2009 19.0258 21.3639C19.1685 21.527 19.3469 21.6548 19.5472 21.7376C19.5696 21.7488 19.56 21.7735 19.5495 21.8C19.5443 21.8115 19.5404 21.8236 19.5376 21.8359C19.4375 22.4439 18.5799 27.6743 18.3495 29.0864ZM16.9959 30.4391C16.5184 30.912 16.2368 31.1623 15.9184 31.2631C15.6044 31.3625 15.2675 31.3625 14.9536 31.2631C14.5808 31.1447 14.2584 30.8231 13.6144 30.1783L6.41996 22.984L8.29916 20.0695C8.30796 20.0551 8.31676 20.0423 8.33116 20.032C8.35116 20.0176 8.37996 20.024 8.40396 20.032C8.83529 20.1622 9.2984 20.1386 9.71436 19.9655C9.73596 19.9575 9.75756 19.952 9.77436 19.9671C9.78277 19.9748 9.79027 19.9834 9.79676 19.9927L16.9959 30.4391ZM5.72556 22.2903L4.07596 20.64L7.33516 19.2496C7.34349 19.246 7.35247 19.2441 7.36156 19.2439C7.38876 19.2439 7.40476 19.2711 7.41916 19.296C7.45192 19.3463 7.48661 19.3955 7.52316 19.4432L7.53356 19.456C7.54316 19.4695 7.53676 19.4832 7.52716 19.496L5.72716 22.2903H5.72556ZM3.34476 19.9095L1.25676 17.8215C0.901563 17.4663 0.643962 17.2087 0.464762 16.9872L6.81356 18.304C6.82154 18.3055 6.82954 18.3068 6.83756 18.3079C6.87676 18.3143 6.91996 18.3216 6.91996 18.3584C6.91996 18.3984 6.87276 18.4167 6.83276 18.432L6.81436 18.44L3.34476 19.9095ZM0.101562 15.9136C0.108798 15.7791 0.132989 15.646 0.173562 15.5175C0.291962 15.1447 0.613562 14.8231 1.25836 14.1784L3.93036 11.5064C5.16063 13.2919 6.39423 15.0751 7.63116 16.856C7.65276 16.8848 7.67676 16.9168 7.65196 16.9408C7.53516 17.0695 7.41836 17.2103 7.33596 17.3632C7.32703 17.3828 7.31327 17.3999 7.29596 17.4128C7.28556 17.4192 7.27436 17.4167 7.26236 17.4144H7.26076L0.101562 15.9136ZM4.64556 10.7912L8.23756 7.19839C8.57596 7.34639 9.80556 7.86559 10.904 8.32959C11.736 8.68159 12.4944 9.00159 12.7328 9.10559C12.7568 9.11519 12.7784 9.12479 12.7888 9.14879C12.7952 9.16319 12.792 9.18159 12.7888 9.19679C12.7319 9.45613 12.7404 9.72553 12.8134 9.98079C12.8864 10.2361 13.0217 10.4692 13.2072 10.6592C13.2312 10.6832 13.2072 10.7176 13.1864 10.7472L13.1752 10.764L9.52716 16.4144C9.51756 16.4304 9.50876 16.4439 9.49276 16.4544C9.47356 16.4663 9.44636 16.4608 9.42396 16.4551C9.28208 16.418 9.13622 16.3981 8.98956 16.3959C8.85836 16.3959 8.71596 16.4199 8.57196 16.4464C8.55596 16.4487 8.54076 16.4519 8.52796 16.4423C8.51382 16.4308 8.50166 16.417 8.49196 16.4016L4.64556 10.7912ZM8.96396 6.47279L13.6152 1.82159C14.2592 1.17759 14.5815 0.855185 14.9543 0.737585C15.2682 0.638314 15.6053 0.638314 15.9191 0.737585C16.2919 0.855185 16.6144 1.17759 17.2583 1.82159L18.2663 2.82959L14.9575 7.95199C14.9494 7.9669 14.9382 7.97997 14.9248 7.99039C14.9047 8.00399 14.8768 7.99839 14.8528 7.99039C14.592 7.91123 14.3158 7.89683 14.0481 7.94839C13.7805 7.99997 13.5295 8.11599 13.3168 8.28639C13.2952 8.30879 13.2632 8.29599 13.236 8.28399C12.804 8.09599 9.44476 6.67679 8.96396 6.47279ZM18.9687 3.53199L22.0231 6.58639L21.2871 11.1448V11.1568C21.2866 11.1672 21.2844 11.1774 21.2807 11.1872C21.2727 11.2032 21.2567 11.2064 21.2407 11.2112C21.0834 11.2589 20.9351 11.3327 20.8023 11.4296C20.7967 11.4337 20.7913 11.4382 20.7863 11.4432C20.7776 11.4528 20.7687 11.4616 20.7543 11.4632C20.7427 11.4635 20.7309 11.4616 20.72 11.4576L16.0656 9.47999L16.0567 9.47599C16.0272 9.46399 15.992 9.44959 15.992 9.41919C15.9647 9.15981 15.8799 8.90978 15.744 8.68719C15.7216 8.65039 15.6967 8.61199 15.7159 8.57439L18.9687 3.53199ZM15.8215 10.416L20.1847 12.264C20.2087 12.2752 20.2352 12.2856 20.2455 12.3104C20.2498 12.3253 20.2498 12.3411 20.2455 12.356C20.2327 12.42 20.2215 12.4928 20.2215 12.5664V12.6888C20.2215 12.7192 20.1904 12.732 20.1616 12.744L20.1527 12.7472C19.4615 13.0424 10.4488 16.8855 10.4352 16.8855C10.4216 16.8855 10.4072 16.8855 10.3936 16.872C10.3696 16.848 10.3936 16.8144 10.4152 16.784C10.419 16.7788 10.4227 16.7734 10.4264 16.768L14.012 11.216L14.0184 11.2064C14.0392 11.1728 14.0632 11.1352 14.1016 11.1352L14.1376 11.1408C14.2192 11.152 14.2912 11.1624 14.364 11.1624C14.9079 11.1624 15.4119 10.8976 15.7159 10.4448C15.7232 10.4327 15.7324 10.4219 15.7431 10.4128C15.7648 10.3968 15.7968 10.4048 15.8215 10.416ZM10.8248 17.7639L20.6487 13.5744C20.6487 13.5744 20.6631 13.5744 20.6768 13.588C20.7303 13.6416 20.776 13.6776 20.8199 13.7112L20.8416 13.7248C20.8615 13.736 20.8816 13.7488 20.8832 13.7696C20.8832 13.7776 20.8832 13.7824 20.8816 13.7896L20.0407 18.96L20.0375 18.9808C20.032 19.0208 20.0263 19.0663 19.9888 19.0663C19.7644 19.0816 19.5471 19.1511 19.3557 19.2692C19.1642 19.3873 19.0045 19.5503 18.8903 19.744L18.8864 19.7504C18.8752 19.7687 18.8647 19.7863 18.8464 19.7959C18.8295 19.8039 18.808 19.8007 18.7904 19.7968L10.956 18.1808C10.948 18.1792 10.8336 17.7648 10.8248 17.7639Z" fill="white"/>
</g>
<defs>
<clipPath id="clip0_686_155">
<rect width="117.818" height="32" fill="white"/>
</clipPath>
</defs>
</svg>
