<svg width="43" height="32" viewBox="0 0 43 32" fill="none" xmlns="http://www.w3.org/2000/svg">
<path d="M21.236 21.258V17.136C25.5991 17.136 28.9859 12.809 27.3106 8.21694C26.6959 6.52956 25.3339 5.1676 23.6345 4.55291C19.0424 2.88964 14.7154 6.2644 14.7154 10.6275H10.6055C10.6055 3.67306 17.3309 -1.75066 24.6228 0.527301C27.8047 1.52768 30.3478 4.05875 31.3362 7.24067C33.6141 14.5326 28.1904 21.258 21.236 21.258Z" fill="white"/>
<path fill-rule="evenodd" clip-rule="evenodd" d="M21.2467 17.1601H17.1367V13.0501H21.2467V17.1601Z" fill="white"/>
<path fill-rule="evenodd" clip-rule="evenodd" d="M17.1379 20.3058H13.9922V17.1601H17.1379V20.3058Z" fill="white"/>
<path fill-rule="evenodd" clip-rule="evenodd" d="M13.9911 17.1601H11.3516V14.5205H13.9911V17.1601Z" fill="white"/>
<path d="M3.66403 25.4283C3.13371 25.0546 2.45876 24.8738 1.68738 24.8738H0V30.2373H1.69943C2.47081 30.2373 3.14576 30.0445 3.67608 29.6467C3.96535 29.4418 4.19435 29.1526 4.36309 28.791C4.51977 28.4294 4.60414 27.9955 4.60414 27.5254C4.60414 27.0554 4.51977 26.6335 4.36309 26.272C4.19435 25.9104 3.96535 25.6211 3.66403 25.4283ZM0.988324 25.7778H1.51864C2.10923 25.7778 2.59134 25.8983 2.96497 26.1273C3.37476 26.3804 3.57966 26.8505 3.57966 27.5254C3.57966 28.2245 3.37476 28.7187 2.96497 28.9838C2.61544 29.2128 2.13333 29.3334 1.5307 29.3334H0.988324V25.7778Z" fill="white"/>
<path d="M5.77418 24.8015C5.60544 24.8015 5.47286 24.8617 5.35233 24.9702C5.24386 25.0787 5.18359 25.2113 5.18359 25.38C5.18359 25.5488 5.24386 25.6813 5.35233 25.8019C5.46081 25.9103 5.60544 25.9706 5.77418 25.9706C5.93086 25.9706 6.0755 25.9103 6.19602 25.8019C6.3045 25.6934 6.36476 25.5488 6.36476 25.38C6.36476 25.2113 6.3045 25.0787 6.19602 24.9702C6.0755 24.8617 5.93086 24.8015 5.77418 24.8015Z" fill="white"/>
<path d="M6.24513 26.4527H5.29297V30.2373H6.24513V26.4527Z" fill="white"/>
<path d="M9.70572 26.7661C9.41646 26.513 9.10309 26.3563 8.75356 26.3563C8.22324 26.3563 7.78934 26.5371 7.45186 26.8987C7.11438 27.2482 6.93359 27.7062 6.93359 28.2606C6.93359 28.7909 7.10233 29.2489 7.43981 29.6105C7.77728 29.9601 8.22324 30.1409 8.7415 30.1409C9.10309 30.1409 9.42851 30.0444 9.68162 29.8395V29.9239C9.68162 30.2373 9.59725 30.4783 9.42851 30.6471C9.25977 30.8158 9.03077 30.9002 8.7415 30.9002C8.30761 30.9002 8.03039 30.7314 7.69292 30.2734L7.04207 30.9002L7.05412 30.9243C7.19875 31.1171 7.40365 31.31 7.69292 31.4908C7.97013 31.6715 8.33171 31.768 8.75356 31.768C9.32003 31.768 9.77804 31.5992 10.1155 31.2497C10.453 30.9002 10.6217 30.4422 10.6217 29.8757V26.4407H9.68162V26.7661H9.70572ZM9.45261 29.0079C9.28388 29.2007 9.06693 29.2851 8.80177 29.2851C8.52455 29.2851 8.31966 29.1887 8.15092 29.0079C7.98218 28.815 7.90987 28.574 7.90987 28.2727C7.90987 27.9593 7.99423 27.7183 8.15092 27.5254C8.30761 27.3326 8.53661 27.2482 8.80177 27.2482C9.07898 27.2482 9.28388 27.3446 9.45261 27.5254C9.62135 27.7183 9.70572 27.9714 9.70572 28.2727C9.70572 28.574 9.62135 28.815 9.45261 29.0079Z" fill="white"/>
<path d="M12.4014 26.4527H11.4492V30.2373H12.4014V26.4527Z" fill="white"/>
<path d="M11.9343 24.8015C11.7656 24.8015 11.633 24.8617 11.5125 24.9702C11.404 25.0787 11.3438 25.2113 11.3438 25.38C11.3438 25.5488 11.404 25.6813 11.5125 25.8019C11.621 25.9103 11.7656 25.9706 11.9343 25.9706C12.091 25.9706 12.2357 25.9103 12.3562 25.8019C12.4647 25.6934 12.5249 25.5488 12.5249 25.38C12.5249 25.2113 12.4647 25.0787 12.3562 24.9702C12.2357 24.8617 12.1031 24.8015 11.9343 24.8015Z" fill="white"/>
<path d="M14.4864 25.4283H13.5463V26.4527H13.0039V27.3205H13.5463V28.8874C13.5463 29.3815 13.6427 29.7311 13.8355 29.936C14.0284 30.1409 14.3779 30.2373 14.86 30.2373C15.0167 30.2373 15.1734 30.2373 15.318 30.2252H15.3662V29.3574L15.0408 29.3695C14.8118 29.3695 14.6672 29.3333 14.5949 29.249C14.5226 29.1646 14.4864 28.9959 14.4864 28.7428V27.3085H15.3783V26.4407H14.4864V25.4283Z" fill="white"/>
<path d="M20.792 24.8618H19.8398V30.2373H20.792V24.8618Z" fill="white"/>
<path d="M30.4086 28.8874C30.2399 29.0802 30.0591 29.249 29.9265 29.3334C29.7939 29.4177 29.6252 29.4659 29.4323 29.4659C29.1551 29.4659 28.9261 29.3695 28.7453 29.1526C28.5645 28.9477 28.4681 28.6705 28.4681 28.3571C28.4681 28.0317 28.5645 27.7665 28.7453 27.5616C28.9261 27.3567 29.1551 27.2482 29.4323 27.2482C29.7337 27.2482 30.0591 27.4411 30.3363 27.7665L30.963 27.1639C30.5532 26.6335 30.035 26.3804 29.4082 26.3804C28.89 26.3804 28.432 26.5733 28.0583 26.9469C27.6847 27.3205 27.5039 27.7906 27.5039 28.3571C27.5039 28.9236 27.6968 29.3936 28.0583 29.7673C28.432 30.1409 28.8779 30.3337 29.4082 30.3337C30.0952 30.3337 30.6497 30.0324 31.0354 29.49L30.4086 28.8874Z" fill="white"/>
<path d="M34.328 26.983C34.1954 26.7902 34.0147 26.6456 33.7856 26.5371C33.5566 26.4286 33.2915 26.3683 33.0022 26.3683C32.4719 26.3683 32.038 26.5612 31.7126 26.9469C31.3992 27.3326 31.2305 27.8026 31.2305 28.3691C31.2305 28.9476 31.4113 29.4177 31.7487 29.7793C32.0983 30.1409 32.5563 30.3216 33.1227 30.3216C33.7615 30.3216 34.2919 30.0565 34.6896 29.5503L34.7137 29.5262L34.087 28.9235C34.0267 28.9958 33.9423 29.0682 33.87 29.1405C33.7736 29.2248 33.6892 29.2972 33.5928 29.3454C33.4482 29.4177 33.2915 29.4538 33.1107 29.4538C32.8455 29.4538 32.6286 29.3815 32.4598 29.2248C32.3032 29.0802 32.2067 28.8874 32.1826 28.6463H34.7017L34.7137 28.2968C34.7137 28.0557 34.6776 27.8147 34.6173 27.5977C34.557 27.3808 34.4606 27.1759 34.328 26.983ZM32.2429 27.8749C32.2911 27.6941 32.3755 27.5375 32.496 27.429C32.6286 27.2964 32.7973 27.2361 32.9902 27.2361C33.2192 27.2361 33.4 27.2964 33.5205 27.429C33.629 27.5495 33.7013 27.6941 33.7133 27.8749H32.2429Z" fill="white"/>
<path d="M37.9792 26.742C37.6899 26.5009 37.2922 26.3683 36.798 26.3683C36.4846 26.3683 36.1833 26.4407 35.9181 26.5732C35.665 26.6938 35.424 26.9107 35.2673 27.1759L35.2793 27.1879L35.894 27.7665C36.1471 27.3687 36.4244 27.2241 36.798 27.2241C37.0029 27.2241 37.1596 27.2723 37.2922 27.3808C37.4127 27.4893 37.485 27.6218 37.485 27.7906V27.9714C37.2439 27.899 37.0149 27.8629 36.7859 27.8629C36.3159 27.8629 35.9302 27.9714 35.6409 28.1883C35.3517 28.4053 35.207 28.7307 35.207 29.1405C35.207 29.5021 35.3276 29.7793 35.5807 29.9962C35.8338 30.2011 36.1351 30.3096 36.4967 30.3096C36.8583 30.3096 37.1957 30.165 37.5091 29.9118V30.2252H38.4492V27.7906C38.4131 27.3446 38.2684 26.983 37.9792 26.742ZM36.2918 28.7909C36.4003 28.7186 36.5569 28.6825 36.7498 28.6825C36.9788 28.6825 37.2198 28.7307 37.4729 28.8151V29.1887C37.2681 29.3815 36.9908 29.478 36.6534 29.478C36.4846 29.478 36.3641 29.4418 36.2677 29.3695C36.1833 29.2972 36.1351 29.2128 36.1351 29.0923C36.1351 28.9597 36.1833 28.8633 36.2918 28.7909Z" fill="white"/>
<path d="M42.0779 26.8143C41.8128 26.513 41.4391 26.3683 40.9691 26.3683C40.5954 26.3683 40.2821 26.4768 40.0531 26.6938V26.4648H39.125V30.2373H40.0772V28.1522C40.0772 27.8629 40.1495 27.6339 40.2821 27.4772C40.4146 27.3205 40.5954 27.2361 40.8485 27.2361C41.0655 27.2361 41.2222 27.3085 41.3427 27.4531C41.4632 27.5977 41.5235 27.8026 41.5235 28.0437V30.2373H42.4757V28.0437C42.4757 27.5254 42.3431 27.1036 42.0779 26.8143Z" fill="white"/>
<path d="M18.6471 26.742C18.3579 26.5009 17.9601 26.3683 17.466 26.3683C17.1526 26.3683 16.8513 26.4407 16.5861 26.5732C16.333 26.6938 16.0919 26.9107 15.9353 27.1759L15.9473 27.1879L16.562 27.7665C16.8151 27.3687 17.0923 27.2241 17.466 27.2241C17.6709 27.2241 17.8275 27.2723 17.9601 27.3808C18.0807 27.4893 18.153 27.6218 18.153 27.7906V27.9714C17.9119 27.899 17.6829 27.8629 17.4539 27.8629C16.9839 27.8629 16.5982 27.9714 16.3089 28.1883C16.0196 28.4053 15.875 28.7307 15.875 29.1405C15.875 29.5021 15.9955 29.7793 16.2486 29.9962C16.5017 30.2011 16.8031 30.3096 17.1646 30.3096C17.5262 30.3096 17.8637 30.165 18.1771 29.9118V30.2252H19.1172V27.7906C19.081 27.3446 18.9364 26.983 18.6471 26.742ZM16.9597 28.7909C17.0682 28.7186 17.2249 28.6825 17.4177 28.6825C17.6468 28.6825 17.8878 28.7307 18.1409 28.8151V29.1887C17.936 29.3815 17.6588 29.478 17.3213 29.478C17.1526 29.478 17.0321 29.4418 16.9356 29.3695C16.8513 29.2972 16.8031 29.2128 16.8031 29.0923C16.8031 28.9597 16.8513 28.8633 16.9597 28.7909Z" fill="white"/>
<path d="M24.2526 30.3217C22.7219 30.3217 21.4805 29.0802 21.4805 27.5495C21.4805 26.0188 22.7219 24.7774 24.2526 24.7774C25.7833 24.7774 27.0247 26.0188 27.0247 27.5495C27.0247 29.0802 25.7833 30.3217 24.2526 30.3217ZM24.2526 25.7537C23.2643 25.7537 22.4567 26.5612 22.4567 27.5495C22.4567 28.5379 23.2643 29.3454 24.2526 29.3454C25.2409 29.3454 26.0485 28.5379 26.0485 27.5495C26.0485 26.5612 25.2409 25.7537 24.2526 25.7537Z" fill="white"/>
</svg>
