<svg width="31" height="32" viewBox="0 0 31 32" fill="none" xmlns="http://www.w3.org/2000/svg">
<path d="M30.9062 7.19519C30.9177 7.23759 30.9235 7.28131 30.9236 7.32523V14.1522C30.9236 14.2398 30.9005 14.3258 30.8565 14.4017C30.8126 14.4775 30.7494 14.5404 30.6733 14.584L24.9381 17.8829V24.4218C24.9381 24.5997 24.8434 24.764 24.689 24.8536L12.7172 31.739C12.6898 31.7546 12.6599 31.7645 12.63 31.7751C12.6188 31.7788 12.6082 31.7857 12.5964 31.7888C12.5127 31.8108 12.4247 31.8108 12.3411 31.7888C12.3274 31.785 12.3149 31.7776 12.3018 31.7726C12.2744 31.7626 12.2458 31.7539 12.2196 31.739L0.250358 24.8536C0.174321 24.81 0.111142 24.7471 0.0671886 24.6712C0.023235 24.5954 6.02476e-05 24.5094 0 24.4218L0 3.94102C0 3.89622 0.00622782 3.85266 0.0174379 3.81035C0.0211746 3.79604 0.0298936 3.78298 0.0348758 3.76866C0.0442175 3.74253 0.0529365 3.71578 0.0666377 3.69151C0.0759794 3.67533 0.0896807 3.66227 0.100891 3.64733C0.115215 3.62742 0.128293 3.60689 0.145108 3.58947C0.159432 3.57516 0.178116 3.56458 0.194308 3.55213C0.212369 3.5372 0.228561 3.52102 0.249113 3.5092H0.249736L6.23467 0.0664967C6.31045 0.0229297 6.39635 0 6.48379 0C6.57122 0 6.65712 0.0229297 6.7329 0.0664967L12.7178 3.5092H12.7191C12.739 3.52165 12.7558 3.5372 12.7739 3.55151C12.7901 3.56396 12.8081 3.57516 12.8225 3.58884C12.8399 3.60689 12.8524 3.62742 12.8673 3.64733C12.8779 3.66227 12.8922 3.67533 12.9009 3.69151C12.9153 3.7164 12.9234 3.74253 12.9333 3.76866C12.9383 3.78298 12.947 3.79604 12.9508 3.81097C12.9622 3.85338 12.9681 3.8971 12.9682 3.94102V16.7331L17.9554 13.8641V7.32461C17.9554 7.28106 17.9617 7.23688 17.9729 7.19519C17.9772 7.18026 17.9853 7.16719 17.9903 7.15288C18.0003 7.12675 18.009 7.09999 18.0227 7.07573C18.032 7.05955 18.0457 7.04648 18.0563 7.03155C18.0713 7.01164 18.0837 6.99111 18.1012 6.97368C18.1155 6.95937 18.1336 6.94879 18.1497 6.93635C18.1684 6.92142 18.1846 6.90524 18.2045 6.89342H18.2052L24.1907 3.45071C24.2665 3.40709 24.3524 3.38412 24.4398 3.38412C24.5273 3.38412 24.6132 3.40709 24.689 3.45071L30.6739 6.89342C30.6951 6.90586 30.7113 6.92142 30.7299 6.93573C30.7455 6.94817 30.7636 6.95937 30.7779 6.97306C30.7953 6.99111 30.8078 7.01164 30.8227 7.03155C30.834 7.04648 30.8477 7.05955 30.8564 7.07573C30.8707 7.09999 30.8788 7.12675 30.8888 7.15288C30.8944 7.16719 30.9025 7.18026 30.9062 7.19519V7.19519ZM29.9259 13.8641V8.187L27.8315 9.3916L24.9381 11.056V16.7331L29.9266 13.8641H29.9259ZM23.941 24.1337V18.4529L21.0949 20.0769L12.9676 24.7111V30.4454L23.941 24.1337ZM0.997697 4.80278V24.1337L11.9699 30.4448V24.7117L6.23779 21.4706L6.23592 21.4694L6.23343 21.4681C6.21412 21.4569 6.19793 21.4408 6.17987 21.4271C6.1643 21.4146 6.14624 21.4047 6.13254 21.391L6.13129 21.3891C6.1151 21.3736 6.10389 21.3543 6.09019 21.3368C6.07773 21.32 6.06279 21.3057 6.05282 21.2883L6.0522 21.2864C6.04099 21.2678 6.03414 21.2454 6.02604 21.2242C6.01795 21.2056 6.00736 21.1881 6.00238 21.1682V21.1676C5.99615 21.144 5.9949 21.1191 5.99241 21.0948C5.98992 21.0761 5.98494 21.0575 5.98494 21.0388V7.67181L3.09211 6.00676L0.997697 4.8034V4.80278ZM6.48441 1.07324L1.49779 3.94102L6.48316 6.8088L11.4692 3.94039L6.48316 1.07324H6.48441ZM9.07767 18.9706L11.9705 17.3068V4.80278L9.87608 6.00739L6.98263 7.67181V20.1758L9.07767 18.9706ZM24.4398 4.45745L19.4539 7.32523L24.4398 10.193L29.4252 7.32461L24.4398 4.45745ZM23.941 11.056L21.0476 9.3916L18.9531 8.187V13.8641L21.846 15.5279L23.941 16.7331V11.056ZM12.4681 23.8493L19.7814 19.678L23.4372 17.5936L18.4549 14.7277L12.7185 18.0273L7.4902 21.0345L12.4681 23.8493Z" fill="white"/>
</svg>
