<svg width="54" height="32" viewBox="0 0 54 32" fill="none" xmlns="http://www.w3.org/2000/svg">
<g clip-path="url(#clip0_686_103)">
<path d="M15.1926 11.6747C15.1926 12.3253 15.2629 12.8528 15.386 13.2396C15.5266 13.6264 15.7024 14.0484 15.9486 14.5055C16.0365 14.6462 16.0717 14.7868 16.0717 14.9099C16.0717 15.0857 15.9662 15.2616 15.7376 15.4374L14.6299 16.1758C14.4717 16.2813 14.3134 16.3341 14.1728 16.3341C13.997 16.3341 13.8211 16.2462 13.6453 16.0879C13.3992 15.8242 13.1882 15.5429 13.0123 15.2616C12.8365 14.9627 12.6607 14.6286 12.4673 14.2242C11.0959 15.8418 9.37278 16.6506 7.29805 16.6506C5.82113 16.6506 4.64311 16.2286 3.78157 15.3846C2.92003 14.5407 2.48047 13.4154 2.48047 12.0088C2.48047 10.5143 3.00794 9.30111 4.08047 8.38683C5.153 7.47254 6.57717 7.0154 8.38816 7.0154C8.98596 7.0154 9.60135 7.06815 10.2519 7.15606C10.9024 7.24397 11.5706 7.38463 12.2739 7.54287V6.25935C12.2739 4.92309 11.9926 3.99122 11.4475 3.44617C10.8849 2.90111 9.93541 2.63738 8.58157 2.63738C7.96618 2.63738 7.33322 2.70771 6.68267 2.86595C6.03212 3.02419 5.39915 3.2176 4.78377 3.46375C4.50245 3.58683 4.29146 3.65716 4.16838 3.69232C4.0453 3.72749 3.95739 3.74507 3.88706 3.74507C3.64091 3.74507 3.51783 3.56924 3.51783 3.20001V2.33848C3.51783 2.05716 3.553 1.84617 3.64091 1.72309C3.72882 1.60001 3.88706 1.47694 4.13322 1.35386C4.7486 1.03738 5.48706 0.77364 6.3486 0.562651C7.21014 0.33408 8.12442 0.228585 9.09146 0.228585C11.1838 0.228585 12.7134 0.70331 13.6981 1.65276C14.6651 2.60221 15.1574 4.04397 15.1574 5.97804V11.6747H15.1926ZM8.0541 14.3473C8.63431 14.3473 9.23212 14.2418 9.86508 14.0308C10.4981 13.8198 11.0607 13.433 11.5354 12.9055C11.8167 12.5714 12.0277 12.2022 12.1332 11.7802C12.2387 11.3583 12.309 10.8484 12.309 10.2506V9.5121C11.7992 9.38903 11.2541 9.28353 10.6915 9.2132C10.1288 9.14287 9.58377 9.10771 9.03871 9.10771C7.86069 9.10771 6.99915 9.33628 6.41893 9.811C5.83871 10.2857 5.55739 10.9539 5.55739 11.833C5.55739 12.6594 5.76838 13.2747 6.20794 13.6967C6.62992 14.1363 7.2453 14.3473 8.0541 14.3473ZM22.1728 16.2462C21.8563 16.2462 21.6453 16.1934 21.5046 16.0703C21.364 15.9648 21.2409 15.7187 21.1354 15.3846L17.0035 1.79342C16.8981 1.44177 16.8453 1.2132 16.8453 1.09012C16.8453 0.808805 16.986 0.650563 17.2673 0.650563H18.9904C19.3244 0.650563 19.553 0.703311 19.6761 0.826387C19.8167 0.931882 19.9222 1.17804 20.0277 1.5121L22.9816 13.1517L25.7244 1.5121C25.8123 1.16045 25.9178 0.931882 26.0585 0.826387C26.1991 0.720893 26.4453 0.650563 26.7618 0.650563H28.1684C28.5024 0.650563 28.731 0.703311 28.8717 0.826387C29.0123 0.931882 29.1354 1.17804 29.2057 1.5121L31.9838 13.2923L35.0255 1.5121C35.131 1.16045 35.2541 0.931882 35.3772 0.826387C35.5178 0.720893 35.7464 0.650563 36.0629 0.650563H37.698C37.9794 0.650563 38.1376 0.791223 38.1376 1.09012C38.1376 1.17804 38.12 1.26595 38.1024 1.37144C38.0849 1.47694 38.0497 1.6176 37.9794 1.811L33.742 15.4022C33.6365 15.7539 33.5134 15.9824 33.3728 16.0879C33.2321 16.1934 33.0035 16.2638 32.7046 16.2638H31.1926C30.8585 16.2638 30.6299 16.211 30.4893 16.0879C30.3486 15.9648 30.2255 15.7363 30.1552 15.3846L27.4299 4.04397L24.7222 15.367C24.6343 15.7187 24.5288 15.9473 24.3882 16.0703C24.2475 16.1934 24.0013 16.2462 23.6849 16.2462H22.1728ZM44.7662 16.7209C43.8519 16.7209 42.9376 16.6154 42.0585 16.4044C41.1794 16.1934 40.4937 15.9649 40.0365 15.7011C39.7552 15.5429 39.5618 15.367 39.4915 15.2088C39.4211 15.0506 39.386 14.8747 39.386 14.7165V13.8198C39.386 13.4506 39.5266 13.2747 39.7904 13.2747C39.8959 13.2747 40.0013 13.2923 40.1068 13.3275C40.2123 13.3627 40.3706 13.433 40.5464 13.5033C41.1442 13.767 41.7948 13.978 42.4805 14.1187C43.1838 14.2594 43.8695 14.3297 44.5728 14.3297C45.6805 14.3297 46.542 14.1363 47.1398 13.7495C47.7376 13.3627 48.0541 12.8 48.0541 12.0791C48.0541 11.5868 47.8959 11.1824 47.5794 10.8484C47.2629 10.5143 46.6651 10.2154 45.8035 9.93408L43.2541 9.14287C41.9706 8.73848 41.0211 8.14067 40.4409 7.34946C39.8607 6.57584 39.5618 5.7143 39.5618 4.80001C39.5618 4.06155 39.72 3.411 40.0365 2.84837C40.353 2.28573 40.775 1.79342 41.3024 1.40661C41.8299 1.00221 42.4277 0.703311 43.131 0.492322C43.8343 0.281332 44.5728 0.19342 45.3464 0.19342C45.7332 0.19342 46.1376 0.211003 46.5244 0.26375C46.9288 0.316497 47.2981 0.386827 47.6673 0.457157C48.0189 0.545069 48.353 0.632981 48.6695 0.738475C48.986 0.84397 49.2321 0.949464 49.4079 1.05496C49.6541 1.19562 49.8299 1.33628 49.9354 1.49452C50.0409 1.63518 50.0937 1.82859 50.0937 2.07474V2.90111C50.0937 3.27034 49.953 3.46375 49.6893 3.46375C49.5486 3.46375 49.32 3.39342 49.0211 3.25276C48.0189 2.79562 46.8937 2.56705 45.6453 2.56705C44.6431 2.56705 43.8519 2.72529 43.3068 3.05935C42.7618 3.39342 42.4805 3.90331 42.4805 4.62419C42.4805 5.1165 42.6563 5.53848 43.0079 5.87254C43.3596 6.20661 44.0101 6.54067 44.942 6.83957L47.4387 7.63078C48.7046 8.03518 49.6189 8.59782 50.164 9.3187C50.709 10.0396 50.9728 10.8659 50.9728 11.7802C50.9728 12.5363 50.8145 13.222 50.5156 13.8198C50.1991 14.4176 49.7772 14.9451 49.2321 15.367C48.6871 15.8066 48.0365 16.1231 47.2805 16.3517C46.4893 16.5978 45.6629 16.7209 44.7662 16.7209Z" fill="white"/>
<path fill-rule="evenodd" clip-rule="evenodd" d="M48.0876 25.2659C42.303 29.5385 33.8986 31.8066 26.6722 31.8066C16.5448 31.8066 7.41948 28.0615 0.52717 21.8374C-0.0178854 21.3451 0.474422 20.6769 1.12497 21.0637C8.57992 25.389 17.7755 28.0088 27.2876 28.0088C33.7052 28.0088 40.7557 26.6725 47.2437 23.9297C48.2107 23.4901 49.0371 24.5626 48.0876 25.2659Z" fill="white"/>
<path fill-rule="evenodd" clip-rule="evenodd" d="M50.4963 22.5231C49.7578 21.5736 45.6084 22.0659 43.7271 22.2945C43.1644 22.3648 43.0765 21.8725 43.5864 21.5033C46.8919 19.1824 52.3249 19.8506 52.9578 20.6242C53.5908 21.4154 52.782 26.8484 49.6875 29.4506C49.2128 29.855 48.7556 29.644 48.9666 29.1165C49.6699 27.3758 51.2348 23.455 50.4963 22.5231Z" fill="white"/>
</g>
<defs>
<clipPath id="clip0_686_103">
<rect width="53.4506" height="32" fill="white"/>
</clipPath>
</defs>
</svg>
