<svg width="108" height="32" viewBox="0 0 108 32" fill="none" xmlns="http://www.w3.org/2000/svg">
<path d="M23.3691 6.34136C23.265 6.32394 21.1797 6.30651 21.1797 6.30651C21.1797 6.30651 19.4248 4.59941 19.251 4.42522C19.1816 4.35555 19.0946 4.32071 19.0078 4.32071V30.3628L26.8443 28.4118C26.8443 28.4118 23.6472 6.742 23.6298 6.58523C23.595 6.42846 23.4734 6.35878 23.3691 6.34136Z" fill="white"/>
<path fill-rule="evenodd" clip-rule="evenodd" d="M23.3715 6.34139C23.4757 6.35881 23.6148 6.42849 23.6321 6.58526C23.6494 6.72462 26.8467 28.4118 26.8467 28.4118L19.0101 30.3628L0.921875 27.2272C0.921875 27.2272 3.07648 10.4872 3.16336 9.91236C3.26762 9.12849 3.30237 9.11108 4.11904 8.84979C4.13138 8.8374 4.71469 8.6577 5.63788 8.3733C6.01312 8.25771 6.44452 8.12481 6.91655 7.97882C7.09031 6.72462 7.69845 5.10461 8.51512 3.81558C9.6793 1.96912 11.0867 0.94138 12.5116 0.90654C13.2413 0.889122 13.8495 1.13299 14.336 1.65558C14.3708 1.70784 14.4055 1.74267 14.4403 1.77751C14.5098 1.76009 14.5966 1.76009 14.6661 1.76009C15.7783 1.76009 16.6817 2.38718 17.3073 3.58913C17.4984 3.95494 17.6375 4.32074 17.7243 4.61687C18.2804 4.44267 18.6104 4.33817 18.6104 4.33817C18.7495 4.30333 19.0797 4.25107 19.2533 4.42526C19.4272 4.59946 21.1821 6.30656 21.1821 6.30656C21.1821 6.30656 23.2672 6.32397 23.3715 6.34139ZM16.1177 5.1124C16.3666 5.03385 16.6009 4.95987 16.8208 4.89558C16.5949 4.16397 16.0736 2.94461 14.9789 2.73558C15.3091 3.60654 15.3959 4.61687 15.4133 5.33107C15.6598 5.25695 15.8946 5.18284 16.1177 5.1124ZM13.7412 5.85405C13.9897 5.77733 14.2346 5.70171 14.475 5.6272C14.475 4.84333 14.4055 3.67623 14.0059 2.85751C13.5889 3.03171 13.2413 3.32784 12.9807 3.60654C12.303 4.33817 11.747 5.453 11.4516 6.56784C12.2318 6.32015 13.0023 6.08223 13.7412 5.85405ZM13.3804 2.09107C13.1371 1.93428 12.8591 1.86461 12.5289 1.86461C10.3396 1.93428 8.42824 5.3659 7.90696 7.66526C7.98264 7.64166 8.0588 7.6179 8.13544 7.59398C8.85065 7.37082 9.607 7.13481 10.3917 6.89882C10.6697 5.43559 11.3648 3.93751 12.2683 2.96203C12.6158 2.57881 12.9981 2.28267 13.3804 2.09107ZM13.762 13.7969L14.6656 10.3827C14.6656 10.3827 13.8836 9.98201 12.3198 10.1214C8.34075 10.3827 6.53366 13.1698 6.70742 15.922C6.82446 17.7504 7.90496 18.5196 8.85199 19.1938C9.59219 19.7207 10.2509 20.1896 10.3042 21.0608C10.339 21.5485 10.0436 22.2278 9.20953 22.2801C7.9411 22.3498 6.34252 21.1478 6.34252 21.1478L5.73438 23.7433C5.73438 23.7433 7.31557 25.433 10.2 25.2588C12.5978 25.1021 14.2659 23.1859 14.0921 20.3639C13.9556 18.2051 12.441 17.2304 11.2414 16.4585C10.4567 15.9535 9.80679 15.5353 9.76556 14.9292C9.74819 14.633 9.76556 13.5182 11.5379 13.4136C12.7542 13.3265 13.762 13.7969 13.762 13.7969Z" fill="white"/>
<path d="M37.4594 17.664C36.5558 17.1763 36.0868 16.7583 36.0868 16.1834C36.0868 15.4518 36.7297 14.9814 37.7548 14.9814C38.9364 14.9814 39.979 15.4691 39.979 15.4691L40.813 12.9259C40.813 12.9259 40.0485 12.3337 37.8069 12.3337C34.6793 12.3337 32.5073 14.1279 32.5073 16.6537C32.5073 18.082 33.5151 19.1795 34.8705 19.9633C35.9652 20.5904 36.3474 21.0259 36.3474 21.6879C36.3474 22.3673 35.8088 22.9072 34.7836 22.9072C33.2719 22.9072 31.847 22.1233 31.847 22.1233L30.9609 24.6666C30.9609 24.6666 32.2814 25.5551 34.4882 25.5551C37.7028 25.5551 40.0137 23.9699 40.0137 21.113C40.031 19.5628 38.8668 18.4653 37.4594 17.664ZM50.2828 12.2988C48.7016 12.2988 47.4505 13.0479 46.4949 14.1975L46.4427 14.1801L47.8155 6.96849H44.236L40.7608 25.3111H44.3403L45.5393 19.0401C46.0084 16.6711 47.2246 15.2079 48.3714 15.2079C49.1708 15.2079 49.4836 15.7479 49.4836 16.5318C49.4836 17.0195 49.4313 17.6292 49.3272 18.1169L47.9718 25.2937H51.5512L52.9588 17.873C53.1151 17.0892 53.2193 16.1485 53.2193 15.5389C53.2193 13.5356 52.142 12.2988 50.2828 12.2988ZM61.3164 12.2988C57.0073 12.2988 54.1576 16.2007 54.1576 20.5556C54.1576 23.3427 55.8779 25.5724 59.0924 25.5724C63.3147 25.5724 66.1817 21.775 66.1817 17.3156C66.1643 14.7549 64.6526 12.2988 61.3164 12.2988ZM59.5442 22.8202C58.3278 22.8202 57.8066 21.775 57.8066 20.486C57.8066 18.4304 58.8665 15.0685 60.8126 15.0685C62.0811 15.0685 62.4981 16.166 62.4981 17.2285C62.4981 19.4407 61.4382 22.8202 59.5442 22.8202ZM75.3214 12.2988C72.9061 12.2988 71.5334 14.424 71.5334 14.424H71.4814L71.6898 12.4904H68.5275C68.3711 13.7969 68.093 15.7652 67.7977 17.246L65.3129 30.3802H68.8923L69.8828 25.0672H69.9522C69.9522 25.0672 70.6821 25.5376 72.0548 25.5376C76.2597 25.5376 79.0052 21.2176 79.0052 16.8452C79.0225 14.4588 77.9452 12.2988 75.3214 12.2988ZM71.8984 22.8724C70.9601 22.8724 70.4214 22.3498 70.4214 22.3498L71.0121 18.9879C71.4292 16.7583 72.5934 15.2601 73.8444 15.2601C74.9391 15.2601 75.2693 16.2704 75.2693 17.246C75.2693 19.5628 73.8966 22.8724 71.8984 22.8724ZM84.131 7.16012C82.9842 7.16012 82.0806 8.06592 82.0806 9.25044C82.0806 10.313 82.7583 11.0446 83.766 11.0446H83.8182C84.9303 11.0446 85.9033 10.2956 85.9206 8.95431C85.9206 7.90915 85.2257 7.16012 84.131 7.16012ZM79.1268 25.3111H82.7061L85.1388 12.595H81.5246L79.1268 25.3111ZM94.2437 12.5601H91.7589L91.8807 11.9679C92.0891 10.7485 92.8188 9.65108 94.0005 9.65108C94.6434 9.65108 95.1473 9.82528 95.1473 9.82528L95.8422 7.02076C95.8422 7.02076 95.2168 6.70721 93.8962 6.70721C92.6277 6.70721 91.3593 7.07302 90.3862 7.90915C89.17 8.95431 88.5966 10.4524 88.3012 11.9679L88.1969 12.5601H86.5288L86.0075 15.2601H87.6757L85.7817 25.3111H89.3611L91.2551 15.2601H93.7224L94.2437 12.5601ZM102.862 12.595C102.862 12.595 100.621 18.2563 99.6129 21.3395H99.5606C99.4913 20.3466 98.6745 12.595 98.6745 12.595H94.9214L97.076 24.2833C97.1281 24.5447 97.0933 24.7014 97.0065 24.8756C96.5894 25.6769 95.8945 26.4608 95.0604 27.0356C94.3828 27.5233 93.6356 27.8369 93.0274 28.046L94.0178 31.0944C94.7476 30.9376 96.2419 30.3453 97.5278 29.1434C99.1611 27.6105 100.673 25.2415 102.219 22.0189L106.598 12.595H102.862Z" fill="white"/>
</svg>
