<svg width="256" height="32" viewBox="0 0 256 32" fill="none" xmlns="http://www.w3.org/2000/svg">
<path fill-rule="evenodd" clip-rule="evenodd" d="M26.3402 0C19.3156 0 14.9265 3.4911 13.1695 10.4733C15.8039 6.9822 18.8769 5.6733 22.3886 6.54554C24.3922 7.0431 25.825 8.48826 27.4096 10.0883C29.9922 12.6937 32.9816 15.7089 39.5096 15.7089C46.5332 15.7089 50.9234 12.2178 52.6792 5.23664C50.046 8.72774 46.973 10.0366 43.4612 9.16336C41.4566 8.6658 40.0238 7.22064 38.4392 5.62168C35.8566 3.0142 32.8682 0 26.3402 0ZM13.1695 15.7089C6.14606 15.7089 1.75587 19.2 0 26.1822C2.63432 22.691 5.70736 21.3822 9.21806 22.2544C11.2227 22.752 12.6555 24.1972 14.24 25.7972C16.8227 28.4026 19.8111 31.4178 26.3402 31.4178C33.3636 31.4178 37.7538 27.9278 39.5096 20.9456C36.8754 24.4366 33.8024 25.7456 30.2906 24.8732C28.287 24.3748 26.8542 22.9296 25.2696 21.3306C22.687 18.7252 19.6975 15.7089 13.1695 15.7089Z" fill="white"/>
<path fill-rule="evenodd" clip-rule="evenodd" d="M79.0114 13.2387H74.4148V22.082C74.4148 24.4408 75.9714 24.4036 79.0114 24.256V27.8306C72.857 28.5678 70.4106 26.8728 70.4106 22.082V13.2387H67V9.40592H70.4106V4.45728L74.4148 3.2774V9.40592H79.0114V13.2387ZM96.5328 9.40592H100.536V27.8306H96.5328V25.1778C95.1238 27.1298 92.9366 28.3096 90.0452 28.3096C85.0036 28.3096 80.8148 24.0722 80.8148 18.6178C80.8148 13.1282 85.0036 8.92696 90.0452 8.92696C92.9366 8.92696 95.1238 10.1058 96.5328 12.0227V9.40592ZM90.6758 24.514C94.0122 24.514 96.5328 22.0448 96.5328 18.6178C96.5328 15.1907 94.0122 12.7226 90.6758 12.7226C87.3396 12.7226 84.8188 15.1917 84.8188 18.6178C84.8188 22.0448 87.3396 24.514 90.6758 24.514ZM107.209 6.64256C105.801 6.64256 104.652 5.46372 104.652 4.10012C104.655 3.42432 104.926 2.77736 105.405 2.30084C105.884 1.82433 106.533 1.55711 107.209 1.55766C107.884 1.55683 108.533 1.82394 109.013 2.30048C109.492 2.77702 109.763 3.42414 109.766 4.10012C109.766 5.4627 108.618 6.64256 107.209 6.64256ZM105.207 27.8306V9.40592H109.211V27.8306H105.207ZM113.845 27.8306V0.929016H117.848V27.8296H113.845V27.8306ZM143.835 9.40592H148.061L142.241 27.8306H138.311L134.456 15.4126L130.563 27.8306H126.635L120.814 9.40592H125.04L128.636 22.1182L132.529 9.40592H136.347L140.202 22.1182L143.835 9.40592ZM153.028 6.64256C151.619 6.64256 150.47 5.46372 150.47 4.10012C150.474 3.42414 150.745 2.77702 151.224 2.30048C151.704 1.82394 152.352 1.55683 153.028 1.55766C153.704 1.55683 154.353 1.82394 154.833 2.30048C155.312 2.77702 155.583 3.42414 155.586 4.10012C155.586 5.4627 154.437 6.64256 153.028 6.64256ZM151.027 27.8306V9.40592H155.03V27.8306H151.027ZM169.413 8.92696C173.565 8.92696 176.531 11.7275 176.531 16.5182V27.8296H172.528V16.9228C172.528 14.1223 170.897 12.6493 168.376 12.6493C165.744 12.6493 163.668 14.1966 163.668 17.9551V27.8306H159.664V9.40592H163.668V11.7646C164.891 9.84876 166.893 8.92696 169.413 8.92696ZM195.511 2.03662H199.515V27.8296H195.511V25.1768C194.103 27.1298 191.916 28.3086 189.024 28.3086C183.983 28.3086 179.794 24.0712 179.794 18.6168C179.794 13.1272 183.983 8.92592 189.024 8.92592C191.916 8.92592 194.103 10.1048 195.511 12.0217V2.03662ZM189.654 24.514C192.99 24.514 195.511 22.0448 195.511 18.6178C195.511 15.1907 192.99 12.7226 189.654 12.7226C186.318 12.7226 183.797 15.1917 183.797 18.6178C183.797 22.0448 186.318 24.514 189.654 24.514ZM212.934 28.3096C207.336 28.3096 203.148 24.0722 203.148 18.6178C203.148 13.1282 207.336 8.92696 212.934 8.92696C216.566 8.92696 219.718 10.8057 221.2 13.6805L217.754 15.6707C216.938 13.9386 215.122 12.833 212.898 12.833C209.636 12.833 207.152 15.3022 207.152 18.6178C207.152 21.9344 209.636 24.4036 212.898 24.4036C215.122 24.4036 216.938 23.2608 217.828 21.566L221.276 23.519C219.718 26.43 216.566 28.3086 212.934 28.3086V28.3096ZM227.874 14.4908C227.874 17.8446 237.846 15.8173 237.846 22.6354C237.846 26.3206 234.62 28.3096 230.618 28.3096C226.91 28.3096 224.24 26.6508 223.054 23.998L226.502 22.0088C227.094 23.6666 228.578 24.6616 230.618 24.6616C232.396 24.6616 233.768 24.0722 233.768 22.5972C233.768 19.3187 223.796 21.1612 223.796 14.5651C223.796 11.1009 226.798 8.92696 230.58 8.92696C233.62 8.92696 236.14 10.3277 237.438 12.7597L234.064 14.6384C233.396 13.2015 232.1 12.5378 230.58 12.5378C229.134 12.5378 227.874 13.1644 227.874 14.4908ZM244.964 14.4908C244.964 17.8446 254.934 15.8173 254.934 22.6354C254.934 26.3206 251.71 28.3096 247.706 28.3096C244 28.3096 241.33 26.6508 240.144 23.998L243.592 22.0088C244.186 23.6666 245.668 24.6616 247.706 24.6616C249.486 24.6616 250.858 24.0722 250.858 22.5972C250.858 19.3187 240.886 21.1612 240.886 14.5651C240.886 11.1009 243.888 8.92696 247.67 8.92696C250.708 8.92696 253.23 10.3277 254.528 12.7597L251.154 14.6384C250.486 13.2015 249.19 12.5378 247.67 12.5378C246.224 12.5378 244.964 13.1644 244.964 14.4908Z" fill="white"/>
</svg>
