<svg width="159" height="32" viewBox="0 0 159 32" fill="none" xmlns="http://www.w3.org/2000/svg">
<g clip-path="url(#clip0_686_109)">
<path d="M10.8127 22.5801C9.88451 21.7135 9.15022 20.686 8.65189 19.5566C8.15355 18.427 7.90098 17.2177 7.90865 15.9977C7.90527 14.7778 8.16483 13.5695 8.67214 12.4435C9.17946 11.3174 9.92434 10.2963 10.8633 9.4397C11.2654 9.10899 11.5904 8.7058 11.8183 8.25485C12.0462 7.80389 12.1723 7.31464 12.1886 6.81707C12.205 6.31949 12.1115 5.82405 11.9137 5.36109C11.7159 4.89812 11.4181 4.47738 11.0384 4.12462C10.6587 3.77186 10.2052 3.4945 9.70562 3.30952C9.20603 3.12455 8.6709 3.03584 8.13298 3.04886C7.59506 3.06187 7.06566 3.17632 6.57722 3.38519C6.08878 3.59408 5.65155 3.89299 5.29233 4.26362C1.91816 7.36668 0.0145011 11.5826 8.25035e-05 15.984C-0.0143361 20.3854 1.86165 24.612 5.21544 27.7338C5.5735 28.1039 6.00928 28.4027 6.49623 28.612C6.98318 28.8212 7.51109 28.9365 8.04777 28.9508C8.58446 28.9652 9.11867 28.8783 9.61787 28.6953C10.1171 28.5124 10.5708 28.2374 10.9513 27.8871C11.3319 27.5366 11.6313 27.1183 11.8313 26.6574C12.0314 26.1964 12.1279 25.7025 12.1149 25.2061C12.1019 24.7095 11.9798 24.2205 11.7559 23.7691C11.532 23.3176 11.2111 22.9131 10.8127 22.5801Z" fill="white"/>
<path d="M10.5635 9.4553C12.2107 7.82078 14.4372 6.90758 16.755 6.91584C19.0727 6.92411 21.2928 7.85317 22.9283 9.49938C23.239 9.85216 23.6182 10.1375 24.0429 10.338C24.4676 10.5384 24.9287 10.6496 25.3979 10.6649C25.8669 10.6801 26.3343 10.5989 26.771 10.4265C27.2077 10.254 27.6047 9.99378 27.9373 9.66187C28.27 9.32995 28.5315 8.93333 28.7056 8.4964C28.8798 8.05946 28.9629 7.59144 28.9499 7.12111C28.9369 6.65077 28.8281 6.18807 28.6302 5.76145C28.4323 5.33481 28.1494 4.95328 27.799 4.64029C26.3587 3.178 24.6444 2.01533 22.7545 1.21903C20.8647 0.422729 18.8365 0.00850059 16.7865 0.000129468C14.7366 -0.00824165 12.7051 0.38941 10.8089 1.17025C8.91264 1.95109 7.18897 3.09972 5.73687 4.55019C5.38549 4.86053 5.10098 5.23947 4.90075 5.66383C4.70054 6.08818 4.58882 6.54904 4.57242 7.01818C4.55604 7.48731 4.63532 7.95486 4.80544 8.39223C4.97556 8.82959 5.23293 9.22755 5.56178 9.56177C5.89065 9.89597 6.2841 10.1594 6.71803 10.3359C7.15199 10.5125 7.6173 10.5984 8.08552 10.5884C8.55372 10.5784 9.01498 10.4728 9.44105 10.278C9.86714 10.0831 10.2491 9.8032 10.5635 9.4553Z" fill="white"/>
<path d="M23.0515 21.1846C22.232 22.1128 21.26 22.8476 20.191 23.3468C19.1221 23.8461 17.9772 24.1 16.8222 24.0939C15.6673 24.0959 14.5238 23.8351 13.4584 23.3268C12.3931 22.8186 11.4274 22.0732 10.6178 21.1342C10.3049 20.7328 9.92342 20.4084 9.49678 20.1809C9.07013 19.9535 8.60727 19.8277 8.13652 19.8114C7.66577 19.7951 7.19705 19.8883 6.75905 20.0858C6.32104 20.2831 5.92299 20.5804 5.58925 20.9594C5.2555 21.3382 4.9931 21.7909 4.81809 22.2895C4.6431 22.7881 4.55918 23.3222 4.5715 23.8591C4.58381 24.3959 4.69207 24.9242 4.8897 25.4118C5.0873 25.8993 5.37009 26.3356 5.72075 26.6941C7.17131 28.3665 8.89706 29.696 10.7991 30.6065C12.7011 31.517 14.742 31.9906 16.8048 31.9999C18.8676 32.0093 20.9116 31.5543 22.8201 30.6612C24.7283 29.7679 26.4633 28.4541 27.9254 26.795C28.2485 26.43 28.5054 25.9962 28.6814 25.518C28.8574 25.0399 28.9491 24.5269 28.9513 24.0084C28.9534 23.4898 28.8659 22.9759 28.6939 22.4959C28.5219 22.0159 28.2686 21.5793 27.9486 21.2108C27.6286 20.8425 27.2479 20.5496 26.8287 20.349C26.4094 20.1483 25.9596 20.0436 25.5049 20.0412C25.0502 20.0387 24.5994 20.1385 24.1785 20.3346C23.7575 20.5309 23.3746 20.8197 23.0515 21.1846Z" fill="white"/>
<path d="M9.77165 9.55246C9.3445 10.0858 8.80024 10.4485 8.20793 10.5946C7.61561 10.7407 7.00193 10.6636 6.44472 10.3731C5.88752 10.0825 5.4119 9.59171 5.07818 8.9628C4.74448 8.3339 4.56772 7.59526 4.57034 6.84061C4.57296 6.08594 4.75483 5.34926 5.09289 4.72399C5.43096 4.09873 5.90997 3.61306 6.46918 3.32859C7.02837 3.04414 7.64257 2.9737 8.23384 3.12622C8.82512 3.27874 9.36684 3.64733 9.79027 4.18526C10.3544 4.90191 10.669 5.86827 10.6655 6.87365C10.662 7.87904 10.3407 8.84195 9.77165 9.55246Z" fill="#DBDBDB"/>
<path d="M9.7708 27.8392C9.34348 28.3724 8.79912 28.7348 8.20675 28.8806C7.6144 29.0264 7.00073 28.949 6.44361 28.6583C5.88651 28.3674 5.41103 27.8764 5.07753 27.2472C4.74401 26.6182 4.5675 25.8795 4.57035 25.1249C4.57321 24.3701 4.75531 23.6335 5.09358 23.0085C5.43183 22.3834 5.91099 21.8979 6.47028 21.6137C7.02958 21.3295 7.64379 21.2594 8.23502 21.4123C8.82626 21.5651 9.36785 21.9339 9.79112 22.4721C10.355 23.189 10.6693 24.1554 10.6655 25.1608C10.6617 26.1662 10.3401 27.129 9.7708 27.8392Z" fill="#DBDBDB"/>
<path fill-rule="evenodd" clip-rule="evenodd" d="M43.5365 19.7819C44.5645 18.9995 44.701 19.4366 45.5685 20.3108C46.0023 20.748 47.1888 21.5086 46.4124 22.1513C44.7921 23.4846 43.3305 24.0835 41.2627 24.0835C36.5824 24.0615 33.2729 20.5405 33.5383 15.8695C33.6512 13.7776 34.4732 11.7975 36.0953 10.4402C37.5787 9.17463 39.4266 8.62371 41.3677 8.66962C42.319 8.66677 43.2615 8.85402 44.1405 9.22054C44.7359 9.43721 45.297 9.73978 45.8062 10.1188C46.8342 10.9172 46.3549 11.3843 45.5546 12.1888C45.3725 12.3724 45.1903 12.558 45.0298 12.7417C44.6199 13.1549 44.3446 13.4543 43.7978 13.063C42.7482 12.3265 41.4212 11.9352 40.1674 12.2646C36.127 13.2986 36.3092 20.5464 41.2647 20.5703C42.0861 20.5595 42.8825 20.2831 43.5365 19.7819ZM155.852 24.1734C155.689 24.1742 155.529 24.1426 155.379 24.0804C155.229 24.0184 155.093 23.927 154.977 23.8116C154.863 23.6961 154.773 23.559 154.71 23.408C154.648 23.257 154.618 23.0951 154.618 22.9318L154.688 6.87313C154.686 6.70977 154.718 6.54787 154.779 6.39677C154.84 6.24565 154.931 6.10834 155.046 5.99273C155.16 5.87712 155.297 5.78551 155.446 5.72318C155.596 5.66085 155.757 5.62903 155.919 5.62956H157.245C157.406 5.62903 157.568 5.66091 157.717 5.72337C157.866 5.78583 158.003 5.87762 158.118 5.99343C158.232 6.10926 158.323 6.24681 158.384 6.39814C158.445 6.54949 158.477 6.7116 158.476 6.87512L158.406 22.9338C158.407 23.097 158.375 23.2588 158.314 23.4098C158.253 23.5608 158.162 23.698 158.048 23.8135C157.933 23.929 157.796 24.0204 157.647 24.0824C157.498 24.1446 157.336 24.1761 157.174 24.1754L155.852 24.1734ZM148.919 22.311C147.481 23.6682 146.111 24.3809 144.079 24.3809C139.971 24.357 138.006 20.9297 138.006 17.0872L138.03 10.5539C138.029 10.3907 138.061 10.2289 138.123 10.078C138.185 9.92713 138.276 9.7901 138.39 9.67483C138.505 9.55956 138.641 9.46836 138.791 9.40649C138.941 9.34462 139.102 9.31331 139.264 9.31436H140.589C140.751 9.31357 140.911 9.34514 141.061 9.40725C141.211 9.46936 141.347 9.56079 141.462 9.67624C141.576 9.79169 141.667 9.92888 141.729 10.0799C141.79 10.2309 141.821 10.3927 141.821 10.5559L141.799 17.0892C141.799 19.2289 142.94 20.9077 145.178 20.9077C147.416 20.9077 148.785 19.0214 148.806 16.9155V14.5821C148.788 14.4914 148.781 14.399 148.785 14.3066L148.806 10.6018C148.806 10.4386 148.837 10.2768 148.898 10.1258C148.96 9.97478 149.051 9.83761 149.165 9.72215C149.28 9.6067 149.416 9.51528 149.566 9.45317C149.716 9.39105 149.876 9.35948 150.038 9.36027H151.346C151.508 9.35948 151.668 9.39105 151.818 9.45317C151.968 9.51528 152.104 9.6067 152.218 9.72215C152.333 9.83761 152.423 9.97478 152.486 10.1258C152.547 10.2768 152.579 10.4386 152.577 10.6018L152.534 22.9338C152.531 23.26 152.399 23.5718 152.168 23.8004C151.937 24.0291 151.626 24.156 151.302 24.1534H150.183C149.865 24.1434 149.563 24.0117 149.338 23.7851C149.113 23.5585 148.983 23.2541 148.973 22.9338L148.919 22.311ZM133.16 9.36027H135.716C135.879 9.36261 136.039 9.39726 136.187 9.46226C136.336 9.52725 136.471 9.62129 136.583 9.73894C136.696 9.85659 136.784 9.99553 136.843 10.1477C136.902 10.3 136.93 10.4624 136.927 10.6258V11.4761C136.924 11.8039 136.794 12.1176 136.564 12.3498C136.335 12.582 136.024 12.7141 135.699 12.7177H133.136L133.09 22.8638C133.091 23.0272 133.06 23.1892 132.998 23.3403C132.936 23.4913 132.846 23.6286 132.731 23.7443C132.617 23.8599 132.481 23.9515 132.331 24.0138C132.181 24.0762 132.02 24.108 131.858 24.1074H130.535C130.373 24.108 130.212 24.0762 130.062 24.0138C129.912 23.9515 129.776 23.8599 129.661 23.7444C129.547 23.6288 129.456 23.4915 129.394 23.3405C129.332 23.1893 129.301 23.0273 129.301 22.8638L129.347 8.8313C129.347 5.77128 131.082 3.35401 134.187 3.07854C134.279 3.07854 134.346 3.05658 134.437 3.05658C134.62 3.04462 134.803 3.04462 134.986 3.05658H136.174C136.336 3.05891 136.496 3.09352 136.644 3.15838C136.793 3.22325 136.927 3.3171 137.04 3.43454C137.153 3.55198 137.241 3.6907 137.3 3.84268C137.359 3.99467 137.388 4.15692 137.384 4.32012V5.10258C137.382 5.43142 137.252 5.74621 137.021 5.97891C136.791 6.21163 136.479 6.34354 136.152 6.34616H135.194C133.732 6.34616 133.116 7.47195 133.092 8.85326L133.16 9.36027ZM123.983 9.31436H126.786C127.11 9.31753 127.419 9.45004 127.646 9.68283C127.873 9.91563 127.999 10.2296 127.996 10.5559V11.4063C127.993 11.7326 127.861 12.0443 127.63 12.2729C127.399 12.5016 127.088 12.6286 126.764 12.6259H123.96L123.938 18.8338C123.938 20.0314 124.508 20.7201 125.695 20.7201H126.265C126.589 20.7238 126.898 20.8567 127.125 21.0898C127.352 21.323 127.478 21.6372 127.475 21.9637V22.826C127.471 23.1521 127.34 23.4634 127.109 23.692C126.878 23.9206 126.567 24.0477 126.243 24.0455H125.17C124.971 24.0495 124.773 24.0416 124.575 24.0216C121.539 23.822 120.192 21.8379 120.192 18.8457C120.216 14.8196 120.216 10.8174 120.238 6.79128C120.239 6.62955 120.273 6.46971 120.335 6.32088C120.398 6.17205 120.49 6.03717 120.604 5.92392C120.719 5.81065 120.854 5.72126 121.003 5.66083C121.152 5.60038 121.311 5.57009 121.472 5.57167H122.773C123.097 5.57484 123.406 5.70735 123.633 5.94014C123.86 6.17294 123.986 6.48695 123.983 6.81324V9.31436ZM83.3806 9.15269H86.1832C86.5069 9.15584 86.8162 9.28837 87.0431 9.52114C87.27 9.75393 87.396 10.0679 87.3933 10.3943V11.2486C87.3896 11.5747 87.258 11.8861 87.0271 12.1147C86.7962 12.3432 86.4849 12.4703 86.1614 12.4682H83.3489V18.6781C83.3489 19.8758 83.9193 20.5644 85.1057 20.5644H85.6781C85.8384 20.5659 85.9967 20.5993 86.1441 20.6625C86.2916 20.7258 86.4252 20.8177 86.5374 20.933C86.6495 21.0482 86.738 21.1847 86.7979 21.3345C86.8578 21.4843 86.8878 21.6445 86.8863 21.806V22.6563C86.8831 22.9825 86.7516 23.2943 86.5207 23.523C86.2897 23.7516 85.9781 23.8785 85.6543 23.8759H84.8106C81.499 23.854 79.5818 22.4268 79.5818 18.686C79.6055 14.6599 79.6055 10.6557 79.6273 6.62961C79.631 6.30313 79.7629 5.99144 79.9943 5.76282C80.2254 5.5342 80.5373 5.40733 80.8613 5.40998H82.1625C82.4863 5.41367 82.7953 5.5467 83.0219 5.77987C83.2484 6.01303 83.3739 6.32725 83.3707 6.65356L83.3806 9.15269ZM66.8999 10.9013C68.2466 9.63573 69.7084 8.8313 71.6019 8.8313C75.7116 8.85326 77.8349 12.2247 77.8111 16.1231L77.7893 22.6563C77.7898 22.8198 77.7582 22.9818 77.6965 23.1328C77.6346 23.2839 77.5437 23.4212 77.4291 23.5367C77.3143 23.6524 77.1781 23.744 77.0282 23.8063C76.8782 23.8686 76.7176 23.9003 76.5553 23.8999H75.2324C75.0701 23.9003 74.9095 23.8686 74.7595 23.8063C74.6096 23.744 74.4733 23.6524 74.3586 23.5367C74.244 23.4212 74.153 23.2839 74.0913 23.1328C74.0295 22.9818 73.9979 22.8198 73.9984 22.6563L74.0222 16.169C74.0222 14.0291 72.8813 12.3504 70.6433 12.3504C68.4051 12.3504 67.0365 14.2148 67.0148 16.3306L66.991 22.6563C66.9878 22.9825 66.8563 23.2943 66.6254 23.523C66.3944 23.7516 66.0828 23.8785 65.759 23.8759H64.4578C64.134 23.8727 63.8247 23.7402 63.5978 23.5075C63.3709 23.2746 63.245 22.9606 63.2476 22.6343C63.2694 18.7 63.2694 14.7438 63.2932 10.8094V10.2805C63.2942 9.95453 63.4234 9.64229 63.6525 9.41219C63.8815 9.18208 64.1918 9.05288 64.5153 9.05288H65.6342C65.9522 9.0624 66.2545 9.19395 66.4794 9.42065C66.7044 9.64733 66.835 9.95205 66.8444 10.2725L66.8999 10.9013ZM107.58 11.061C108.927 9.79742 110.386 8.99099 112.282 8.99099C116.392 9.01495 118.513 12.3963 118.491 16.2848L118.467 22.826C118.468 22.9894 118.437 23.1512 118.375 23.3024C118.314 23.4534 118.223 23.5907 118.108 23.7063C117.994 23.822 117.858 23.9136 117.708 23.9759C117.558 24.0382 117.397 24.0701 117.235 24.0695H115.912C115.75 24.0701 115.589 24.0382 115.439 23.9759C115.29 23.9136 115.153 23.822 115.039 23.7065C114.924 23.5908 114.833 23.4535 114.771 23.3025C114.709 23.1514 114.678 22.9894 114.678 22.826L114.702 16.3386C114.702 14.1988 113.559 12.5201 111.323 12.5201C109.087 12.5201 107.716 14.3825 107.693 16.5003L107.661 22.826C107.657 23.1524 107.525 23.4642 107.294 23.6928C107.063 23.9214 106.751 24.0483 106.427 24.0455H105.126C104.802 24.0419 104.494 23.9092 104.267 23.6765C104.041 23.4436 103.915 23.13 103.918 22.8039L103.963 10.4482C103.964 10.2857 103.996 10.125 104.058 9.97528C104.121 9.82554 104.212 9.68971 104.327 9.5756C104.441 9.4615 104.577 9.3714 104.727 9.31046C104.876 9.24952 105.036 9.21897 105.197 9.22054H106.316C106.635 9.23116 106.938 9.36448 107.163 9.59314C107.388 9.82179 107.517 10.1284 107.524 10.4501L107.58 11.061ZM54.4715 8.71554C50.0191 8.69158 46.8698 11.9352 46.8461 16.3985C46.8243 20.9077 49.928 24.1074 54.426 24.1294C58.9239 24.1514 62.073 20.9775 62.0948 16.4384C62.1186 12.0051 58.9002 8.73749 54.4715 8.71554ZM91.4298 17.9415C91.7486 20.0114 93.7134 20.8618 95.6307 20.8858C96.5918 20.8772 97.5405 20.6659 98.4155 20.265C98.5561 20.2072 98.6931 20.1405 98.8255 20.0654C99.283 19.8118 99.693 19.6521 100.105 20.0654C100.333 20.2948 100.539 20.5265 100.767 20.732C100.982 20.939 101.18 21.1625 101.361 21.4008C101.977 22.1812 101.543 22.3669 100.836 22.85C99.3285 23.8619 97.3657 24.3669 95.5613 24.3669C90.7228 24.345 87.526 21.3728 87.526 16.4544C87.5498 11.8055 90.7446 8.72352 95.3555 8.74548C100.059 8.76943 102.729 11.554 102.799 16.2927C102.82 17.5802 102.866 17.9954 101.543 17.9954L91.4298 17.9415ZM54.4715 12.1888C56.7769 12.1888 58.3059 14.2148 58.3059 16.4465C58.3059 18.77 56.868 20.6383 54.4477 20.6383C52.0273 20.6383 50.6132 18.752 50.6132 16.4285C50.6132 14.105 52.0749 12.1888 54.4715 12.1888ZM91.5309 14.7438L99.1106 14.7657C98.8354 12.8555 97.2607 12.0969 95.4583 12.0969C93.656 12.0969 92.0913 12.9493 91.5309 14.7438Z" fill="white"/>
</g>
<defs>
<clipPath id="clip0_686_109">
<rect width="158.476" height="32" fill="white"/>
</clipPath>
</defs>
</svg>
